<?xml version="1.0" standalone="no"?><!DOCTYPE svg PUBLIC "-//W3C//DTD SVG 1.1//EN" "http://www.w3.org/Graphics/SVG/1.1/DTD/svg11.dtd"><svg t="1592398521273" class="icon" viewBox="0 0 1024 1024" version="1.1" xmlns="http://www.w3.org/2000/svg" p-id="12378" xmlns:xlink="http://www.w3.org/1999/xlink" width="128" height="128"><defs><style type="text/css"></style></defs><path d="M298.666667 550.4h426.666666v-42.666667H298.666667v42.666667z m0-132.266667h426.666666v-42.666666H298.666667v42.666666z m0-136.533333h426.666666v-42.666667H298.666667v42.666667z m576 388.266667v247.466666h-725.333334v-247.466666h93.866667c4.266667 0 8.533333 0 12.8 4.266666L384 768c12.8 8.533333 25.6 12.8 38.4 12.8h183.466667c12.8 0 25.6-4.266667 38.4-12.8l128-93.866667c4.266667-4.266667 8.533333-4.266667 12.8-4.266666h89.6z m0-42.666667h-89.6c-12.8 0-25.6 4.266667-38.4 12.8l-128 93.866667c-4.266667 4.266667-8.533333 4.266667-12.8 4.266666H418.133333c-4.266667 0-8.533333 0-12.8-4.266666l-128-93.866667c-12.8-8.533333-25.6-12.8-38.4-12.8H149.333333V106.666667h725.333334v520.533333z" p-id="12379" fill="#8a8a8a"></path></svg>