<?xml version="1.0" standalone="no"?><!DOCTYPE svg PUBLIC "-//W3C//DTD SVG 1.1//EN" "http://www.w3.org/Graphics/SVG/1.1/DTD/svg11.dtd"><svg t="1618757992807" class="icon" viewBox="0 0 1024 1024" version="1.1" xmlns="http://www.w3.org/2000/svg" p-id="2021" width="128" height="128" xmlns:xlink="http://www.w3.org/1999/xlink"><defs><style type="text/css"></style></defs><path d="M838.656 114.688H747.52V79.872c0-18.432-15.36-33.792-33.792-33.792S680.96 61.44 680.96 79.872v34.816H338.944V79.872c0-18.432-15.36-33.792-33.792-33.792S272.384 61.44 272.384 79.872v34.816h-91.136c-81.92 0-148.48 66.56-148.48 148.48v588.8c0 81.92 66.56 148.48 148.48 148.48h656.384c81.92 0 148.48-66.56 148.48-148.48V263.168c0-81.92-65.536-148.48-147.456-148.48z m-640 55.296h74.752v48.128c0 18.432 15.36 33.792 33.792 33.792 18.432 0 33.792-15.36 33.792-33.792v-48.128h340.992v48.128c0 18.432 15.36 33.792 33.792 33.792s33.792-15.36 33.792-33.792v-48.128h74.752c61.44 0 110.592 49.152 110.592 110.592v62.464H88.064v-62.464c0-61.44 49.152-110.592 110.592-110.592z m623.616 776.192H198.656c-61.44 0-110.592-49.152-110.592-110.592V396.288h844.8v439.296c0 60.416-50.176 110.592-110.592 110.592z" fill="#1BA8C0" p-id="2022"></path><path d="M736.256 515.072H284.672c-15.36 0-26.624 12.288-26.624 26.624 0 15.36 12.288 26.624 26.624 26.624H737.28c15.36 0 26.624-12.288 26.624-26.624 0-14.336-12.288-26.624-27.648-26.624z m0 156.672H284.672c-15.36 0-26.624 12.288-26.624 26.624 0 15.36 12.288 26.624 26.624 26.624H737.28c15.36 0 26.624-12.288 26.624-26.624 0-15.36-12.288-26.624-27.648-26.624z" fill="#1BA8C0" p-id="2023"></path></svg>