<?xml version="1.0" standalone="no"?><!DOCTYPE svg PUBLIC "-//W3C//DTD SVG 1.1//EN" "http://www.w3.org/Graphics/SVG/1.1/DTD/svg11.dtd"><svg t="1592398340380" class="icon" viewBox="0 0 1024 1024" version="1.1" xmlns="http://www.w3.org/2000/svg" p-id="10304" xmlns:xlink="http://www.w3.org/1999/xlink" width="128" height="128"><defs><style type="text/css"></style></defs><path d="M663 582.704H361.019c-15.713 0-28.444 12.74-28.444 28.444 0 15.722 12.731 28.444 28.444 28.444H663c15.704 0 28.444-12.723 28.444-28.444 0-15.704-12.74-28.444-28.444-28.444zM266.204 450.167h491.611c15.704 0 28.445-12.722 28.445-28.444 0-15.704-12.741-28.444-28.445-28.444H266.204c-15.713 0-28.444 12.741-28.444 28.444-0.001 15.721 12.731 28.444 28.444 28.444zM266.204 260.741h491.611c15.704 0 28.445-12.741 28.445-28.444 0-15.722-12.741-28.444-28.445-28.444H266.204c-15.713 0-28.444 12.722-28.444 28.444-0.001 15.703 12.731 28.444 28.444 28.444z" p-id="10305" fill="#8a8a8a"></path><path d="M875.296 0H148.065C66.426 0 0 66.426 0 148.056v727.222C0 957.277 66.426 1024 148.065 1024h727.231c82 0 148.704-66.723 148.704-148.723V148.056C1024 66.426 957.296 0 875.296 0zM148.065 56.889h727.231c50.63 0 91.815 40.889 91.815 91.167v435.056h-100.63L652.223 772.74h-280.51L155.176 583.111H58.148c-0.435 0-0.833 0.111-1.259 0.111V148.056c0-50.278 40.898-91.167 91.176-91.167z m727.231 910.222H148.065c-50.278 0-91.176-41.204-91.176-91.834V639.852c0.426 0.037 0.824 0.148 1.259 0.148h75.639l216.537 189.63h323.453L888.037 640h79.074v235.277c0 50.63-41.185 91.834-91.815 91.834z" p-id="10306" fill="#8a8a8a"></path></svg>