<?xml version="1.0" standalone="no"?><!DOCTYPE svg PUBLIC "-//W3C//DTD SVG 1.1//EN" "http://www.w3.org/Graphics/SVG/1.1/DTD/svg11.dtd"><svg t="1592402962162" class="icon" viewBox="0 0 1035 1024" version="1.1" xmlns="http://www.w3.org/2000/svg" p-id="2684" xmlns:xlink="http://www.w3.org/1999/xlink" width="129.375" height="128"><defs><style type="text/css"></style></defs><path d="M818.845068 2.858661c-23.450996-1.731282-49.10544 2.360838-76.805945 11.961581-27.700505 9.600743-48.318494 18.729319-61.696579 27.070948-13.378085 8.341629-25.654445 16.36848-36.514302 23.923164-48.633273-13.378085-103.089947-20.145822-163.055245-20.145822-59.965298 0-113.949804 6.767737-161.79613 20.145822-9.285965-6.767737-19.988433-14.007642-32.107404-22.034493-12.118971-8.026851-33.366517-17.627594-63.58525-28.959619-30.218733-11.332025-57.44707-16.211091-81.842401-14.479809-23.608385 60.437465-26.126613 118.041924-7.554683 172.498599-46.115045 53.669728-69.251262 117.097589-69.251262 190.126192 0 78.065059 23.450996 144.325926 70.510376 198.93999s119.143649 90.656198 216.567584 108.283792c-25.182277 24.395331-42.022925 53.669728-50.364554 88.13797-71.297322 17.627594-121.347098 5.036455-149.83455-37.773416-52.882782-77.278113-100.256941-104.978618-142.279866-83.101515-5.823402 5.823402-5.036455 11.961582 2.518228 18.257151 7.554683 6.295569 18.886708 14.637199 33.996074 25.182278 15.109366 10.545079 26.441391 22.034493 33.996074 34.625631 0.786946 1.731282 3.147785 7.712072 6.925127 18.257151 3.777342 10.545079 7.554683 20.617989 11.332024 30.218732 3.777342 9.600743 10.859857 20.303211 21.404936 32.107404 10.545079 11.804192 22.664049 21.562325 36.514302 29.589175 13.850252 8.026851 32.89435 13.850252 57.28968 17.627594s52.095836 3.934731 83.101515 0.629557v126.540943c0 1.259114-0.157389 3.305174-0.629557 6.295569-0.472168 2.990395-1.259114 5.036455-2.518228 6.29557-1.259114 1.259114-2.990395 2.518228-5.036455 3.777341-2.04606 1.259114-4.879066 2.04606-8.18424 1.888671-4.721677-0.157389-7.869462 0-12.905917-0.786946 67.047813 23.293606 138.974692 36.042134 213.891967 36.042134 72.084268 0 141.335531-11.804192 206.179894-33.366517-6.767737 0-12.118971-1.888671-15.424145-4.406899-3.305174-2.518228-5.193845-5.036455-5.666012-7.554683-0.472168-2.518228-0.629557-6.295569-0.629557-11.332025-0.786946-1.731282-1.259114-2.990395-1.259114-3.777341V801.136847c0-51.151501-18.099762-94.905707-54.141896-130.947841 96.479599-16.840648 168.721257-52.725393 216.567584-107.654235 47.846327-54.928842 71.76949-121.504487 71.76949-199.569547 0-73.028604-23.450996-136.456464-70.510376-190.126192 16.525869-53.669728 13.692863-110.329852-8.971187-169.980371z" p-id="2685" fill="#8a8a8a"></path></svg>