<?xml version="1.0" standalone="no"?><!DOCTYPE svg PUBLIC "-//W3C//DTD SVG 1.1//EN" "http://www.w3.org/Graphics/SVG/1.1/DTD/svg11.dtd"><svg t="1592398066960" class="icon" viewBox="0 0 1024 1024" version="1.1" xmlns="http://www.w3.org/2000/svg" p-id="6461" xmlns:xlink="http://www.w3.org/1999/xlink" width="128" height="128"><defs><style type="text/css"></style></defs><path d="M315.1 0H157.5C70.9 0 0 70.9 0 157.5V315c0 86.6 70.9 157.5 157.5 157.5H315c86.6 0 157.5-70.9 157.5-157.5V157.5C472.6 70.9 401.7 0 315.1 0z m551.4 0H708.9c-86.6 0-157.5 70.9-157.5 157.5V315c0 86.6 70.9 157.5 157.5 157.5h157.5c86.6 0 157.5-70.9 157.5-157.5V157.5C1024 70.9 953.1 0 866.5 0zM315.1 551.4H157.5C70.9 551.4 0 622.3 0 708.9v157.5C0 953.1 70.9 1024 157.5 1024H315c86.6 0 157.5-70.9 157.5-157.5V708.9c0.1-86.6-70.8-157.5-157.4-157.5z m551.4 0H708.9c-86.6 0-157.5 70.9-157.5 157.5v157.5c0 86.6 70.9 157.5 157.5 157.5h157.5c86.6 0 157.5-70.9 157.5-157.5V708.9c0.1-86.6-70.8-157.5-157.4-157.5z" fill="#8a8a8a" p-id="6462"></path></svg>