<?xml version="1.0" standalone="no"?><!DOCTYPE svg PUBLIC "-//W3C//DTD SVG 1.1//EN" "http://www.w3.org/Graphics/SVG/1.1/DTD/svg11.dtd"><svg t="1592398112967" class="icon" viewBox="0 0 1515 1024" version="1.1" xmlns="http://www.w3.org/2000/svg" p-id="7201" xmlns:xlink="http://www.w3.org/1999/xlink" width="189.375" height="128"><defs><style type="text/css"></style></defs><path d="M1118.966 602.047c0-22.535-8.02-42.262-24.06-59.172L630.045 78.661c-16.47-16.479-38.575-30.451-66.315-41.935-27.739-11.484-53.099-17.23-76.074-17.23H217.189c-22.535 0-42.047 8.243-58.509 24.706-16.479 16.47-24.714 35.974-24.714 58.517v270.467c0 22.974 5.738 48.319 17.23 76.066s25.473 49.628 41.935 65.668l464.868 465.515c16.041 16.041 35.543 24.06 58.509 24.06 22.544 0 42.271-8.02 59.172-24.06l319.233-319.879c16.032-16.048 24.051-35.535 24.051-58.509zM400.867 286.389c-16.255 16.255-35.871 24.387-58.845 24.387-22.966 0-42.581-8.131-58.836-24.387s-24.379-35.862-24.379-58.836 8.124-42.589 24.379-58.836c16.255-16.255 35.871-24.387 58.836-24.387 22.974 0 42.589 8.131 58.845 24.387 16.247 16.247 24.379 35.862 24.379 58.836s-8.131 42.581-24.379 58.836z" fill="#8a8a8a" p-id="7202"></path><path d="M1344.562 542.883L879.701 78.669c-16.47-16.479-38.575-30.451-66.322-41.935-27.731-11.484-53.091-17.23-76.066-17.23H591.678c22.974 0 48.327 5.746 76.066 17.23 27.747 11.491 49.852 25.465 66.322 41.935l464.861 464.214c16.048 16.901 24.076 36.628 24.076 59.165 0 22.974-8.028 42.462-24.076 58.509l-305.572 305.58c13.015 13.438 24.491 23.182 34.458 29.254s22.759 9.106 38.361 9.106c22.544 0 42.271-8.02 59.165-24.06l319.226-319.879c16.048-16.048 24.076-35.535 24.076-58.509-0.007-22.535-8.028-42.262-24.076-59.165z" fill="#8a8a8a" p-id="7203"></path></svg>