<?xml version="1.0" standalone="no"?><!DOCTYPE svg PUBLIC "-//W3C//DTD SVG 1.1//EN" "http://www.w3.org/Graphics/SVG/1.1/DTD/svg11.dtd"><svg t="1592399193644" class="icon" viewBox="0 0 1024 1024" version="1.1" xmlns="http://www.w3.org/2000/svg" p-id="3826" xmlns:xlink="http://www.w3.org/1999/xlink" width="128" height="128"><defs><style type="text/css"></style></defs><path d="M836.608 959.488c67.584 0 114.688-57.344 91.136-111.616-63.488-143.36-225.28-245.76-415.744-245.76s-352.256 102.4-415.744 245.76c-23.552 54.272 23.552 111.616 91.136 111.616h649.216zM512 64.512c-132.096 0-238.592 106.496-238.592 238.592S379.904 541.696 512 541.696s238.592-106.496 238.592-238.592S644.096 64.512 512 64.512zM402.432 280.576v-58.368c0-7.168 6.144-13.312 13.312-13.312s13.312 6.144 13.312 13.312v58.368c0 7.168-6.144 13.312-13.312 13.312s-13.312-5.12-13.312-13.312z m108.544 183.296c-51.2 0-93.184-40.96-95.232-91.136h191.488c-3.072 51.2-44.032 91.136-96.256 91.136zM624.64 280.576c0 7.168-6.144 13.312-13.312 13.312-7.168 0-13.312-6.144-13.312-13.312v-58.368c0-7.168 6.144-13.312 13.312-13.312 7.168 0 13.312 6.144 13.312 13.312v58.368z" fill="#8a8a8a" p-id="3827"></path></svg>