<?xml version="1.0" standalone="no"?><!DOCTYPE svg PUBLIC "-//W3C//DTD SVG 1.1//EN" "http://www.w3.org/Graphics/SVG/1.1/DTD/svg11.dtd"><svg t="1592398011510" class="icon" viewBox="0 0 1024 1024" version="1.1" xmlns="http://www.w3.org/2000/svg" p-id="5022" xmlns:xlink="http://www.w3.org/1999/xlink" width="128" height="128"><defs><style type="text/css"></style></defs><path d="M832.032 127.978H192.14c-52.98 0-95.984 43.004-95.984 95.984v511.914c0 52.98 43.003 95.984 95.984 95.984h210.717l86.695 86.695c6.193 6.193 14.45 9.461 22.706 9.461s16.341-3.096 22.706-9.46l86.695-86.696h210.717c52.98 0 95.984-43.003 95.984-95.984V223.962c-0.344-52.98-43.52-95.984-96.328-95.984zM335.944 511.914c-26.49 0-47.992-21.502-47.992-47.992s21.501-47.992 47.992-47.992 47.991 21.502 47.991 47.992-21.501 47.992-47.991 47.992z m191.967 0c-26.49 0-47.992-21.502-47.992-47.992s21.502-47.992 47.992-47.992 47.992 21.502 47.992 47.992-21.502 47.992-47.992 47.992z m192.14 0c-26.49 0-47.992-21.502-47.992-47.992s21.502-47.992 47.992-47.992 47.992 21.502 47.992 47.992-21.674 47.992-47.992 47.992z" p-id="5023" fill="#8a8a8a"></path></svg>