?xml version="1.0" standalone="no"?><!DOCTYPE svg PUBLIC "-//W3C//DTD SVG 1.1//EN" "http://www.w3.org/Graphics/SVG/1.1/DTD/svg11.dtd"><svg t="1618035107669" class="icon" viewBox="0 0 1039 1024" version="1.1" xmlns="http://www.w3.org/2000/svg" p-id="3601" xmlns:xlink="http://www.w3.org/1999/xlink" width="202.9296875" height="200"><defs><style type="text/css"></style></defs><path d="M850.679598 875.483389c-77.853574-71.428367-173.252768-103.052488-173.252768-103.052488h-11.903541c-48.002169 31.218318-102.080697 52.209701-142.329902 52.209701s-94.331293-21.002061-142.329902-52.209701h-11.903542s-95.399194 31.620561-173.252768 103.052488c-117.696976 107.986192-135.267514 142.564841-135.267514 142.56484l462.757285 5.951771 462.757286-5.951771s-17.574098-34.578648-135.274634-142.56484z" p-id="3602"></path><path d="M1039.424056 224.063518L538.816785 0 0 229.118251 251.56198 331.369813c0.53751 60.731554 3.531194 213.993207 19.912802 273.906037 23.315848 85.300406 167.689002 176.666493 251.718605 176.666493s228.399198-91.366086 251.715045-176.662933c16.189386-59.211574 19.304098-209.582775 19.895004-271.723959l102.949257-46.079946v223.141563a26.697536 26.697536 0 0 0 53.395072 0v-247.041197z m-333.185245 362.438625c-6.193828 22.667988-36.006076 54.462973-75.94203 80.986085-44.990687 29.883442-86.208123 43.257127-107.099835 43.257127s-62.109147-13.377245-107.099834-43.257127c-39.939513-26.530231-69.748202-58.318097-75.94559-80.986085-11.202286-40.982497-15.580682-151.23976-16.961834-226.039135l215.634216 87.649789 184.28419-82.484706c-1.487943 74.614273-5.919734 180.80995-16.872843 220.877612z" p-id="3603"></path></svg>
