<?xml version="1.0" standalone="no"?><!DOCTYPE svg PUBLIC "-//W3C//DTD SVG 1.1//EN" "http://www.w3.org/Graphics/SVG/1.1/DTD/svg11.dtd"><svg t="1592725531409" class="icon" viewBox="0 0 1024 1024" version="1.1" xmlns="http://www.w3.org/2000/svg" p-id="2131" width="128" height="128" xmlns:xlink="http://www.w3.org/1999/xlink"><defs><style type="text/css"></style></defs><path d="M512 128c51.863704 0 102.115556 10.145185 149.428148 30.151111 45.700741 19.342222 86.755556 47.028148 122.026667 82.299259s62.957037 76.325926 82.299259 122.026667c20.100741 47.407407 30.245926 97.659259 30.245926 149.522963s-10.145185 102.115556-30.151111 149.428148c-19.342222 45.700741-47.028148 86.755556-82.299259 122.026667s-76.325926 62.957037-122.026667 82.299259c-47.407407 20.100741-97.659259 30.245926-149.522963 30.245926s-102.115556-10.145185-149.428148-30.151111c-45.700741-19.342222-86.755556-47.028148-122.026667-82.299259-35.271111-35.271111-62.957037-76.325926-82.299259-122.026667-20.100741-47.407407-30.245926-97.659259-30.245926-149.522963s10.145185-102.115556 30.151111-149.428148c19.342222-45.700741 47.028148-86.755556 82.299259-122.026667 35.271111-35.271111 76.325926-62.957037 122.026667-82.299259 47.407407-20.100741 97.659259-30.245926 149.522963-30.245926m0-42.666667C276.385185 85.333333 85.333333 276.385185 85.333333 512s191.051852 426.666667 426.666667 426.666667 426.666667-191.051852 426.666667-426.666667S747.614815 85.333333 512 85.333333z" p-id="2132" fill="#d81e06"></path><path d="M512 749.321481c-11.757037 0-21.333333-9.576296-21.333333-21.333333V411.875556c0-11.757037 9.576296-21.333333 21.333333-21.333334s21.333333 9.576296 21.333333 21.333334v316.017777c0 11.851852-9.576296 21.428148-21.333333 21.428148zM512 274.678519c-11.757037 0-21.333333 9.576296-21.333333 21.333333s9.576296 21.333333 21.333333 21.333333 21.333333-9.576296 21.333333-21.333333-9.576296-21.333333-21.333333-21.333333z" p-id="2133" fill="#d81e06"></path></svg>